<mxfile host="app.diagrams.net" modified="2023-11-17T12:50:47.426Z" agent="Mozilla/5.0 (Windows NT 10.0; Win64; x64) AppleWebKit/537.36 (KHTML, like Gecko) Chrome/119.0.0.0 Safari/537.36" etag="YKkIqw7nfXKmpBiy5J3w" version="22.1.2" type="device">
  <diagram name="Trang-1" id="fgCQyi6uwyeHOeTQjHuK">
    <mxGraphModel dx="2724" dy="2013" grid="1" gridSize="10" guides="1" tooltips="1" connect="1" arrows="1" fold="1" page="1" pageScale="1" pageWidth="827" pageHeight="1169" math="0" shadow="0">
      <root>
        <mxCell id="0" />
        <mxCell id="1" parent="0" />
        <mxCell id="lw3g-8ZHwOabZZO0ukQD-4" value="" style="shape=sumEllipse;perimeter=ellipsePerimeter;whiteSpace=wrap;html=1;backgroundOutline=1;" parent="1" vertex="1">
          <mxGeometry x="-10" y="190" width="80" height="80" as="geometry" />
        </mxCell>
        <mxCell id="lw3g-8ZHwOabZZO0ukQD-5" value="0" style="text;html=1;strokeColor=none;fillColor=none;align=center;verticalAlign=middle;whiteSpace=wrap;rounded=0;" parent="1" vertex="1">
          <mxGeometry x="10" y="200" width="40" height="20" as="geometry" />
        </mxCell>
        <mxCell id="lw3g-8ZHwOabZZO0ukQD-6" value="0" style="text;html=1;strokeColor=none;fillColor=none;align=center;verticalAlign=middle;whiteSpace=wrap;rounded=0;" parent="1" vertex="1">
          <mxGeometry x="30" y="220" width="40" height="20" as="geometry" />
        </mxCell>
        <mxCell id="lw3g-8ZHwOabZZO0ukQD-7" value="0" style="text;html=1;strokeColor=none;fillColor=none;align=center;verticalAlign=middle;whiteSpace=wrap;rounded=0;" parent="1" vertex="1">
          <mxGeometry x="10" y="240" width="40" height="20" as="geometry" />
        </mxCell>
        <mxCell id="lw3g-8ZHwOabZZO0ukQD-8" value="0" style="text;html=1;strokeColor=none;fillColor=none;align=center;verticalAlign=middle;whiteSpace=wrap;rounded=0;" parent="1" vertex="1">
          <mxGeometry x="-10" y="220" width="30" height="20" as="geometry" />
        </mxCell>
        <mxCell id="lw3g-8ZHwOabZZO0ukQD-9" value="" style="endArrow=classic;html=1;rounded=0;entryX=0;entryY=0.5;entryDx=0;entryDy=0;exitX=0.5;exitY=0;exitDx=0;exitDy=0;" parent="1" source="lw3g-8ZHwOabZZO0ukQD-4" target="lw3g-8ZHwOabZZO0ukQD-14" edge="1">
          <mxGeometry relative="1" as="geometry">
            <mxPoint x="70" y="239" as="sourcePoint" />
            <mxPoint x="160" y="160" as="targetPoint" />
          </mxGeometry>
        </mxCell>
        <mxCell id="lw3g-8ZHwOabZZO0ukQD-10" value="Gặp gỡ customer = 1" style="edgeLabel;resizable=0;html=1;align=center;verticalAlign=middle;rotation=-50;" parent="lw3g-8ZHwOabZZO0ukQD-9" connectable="0" vertex="1">
          <mxGeometry relative="1" as="geometry" />
        </mxCell>
        <mxCell id="lw3g-8ZHwOabZZO0ukQD-14" value="" style="shape=sumEllipse;perimeter=ellipsePerimeter;whiteSpace=wrap;html=1;backgroundOutline=1;" parent="1" vertex="1">
          <mxGeometry x="230.05" y="-130" width="80" height="80" as="geometry" />
        </mxCell>
        <mxCell id="lw3g-8ZHwOabZZO0ukQD-15" value="1" style="text;html=1;strokeColor=none;fillColor=none;align=center;verticalAlign=middle;whiteSpace=wrap;rounded=0;" parent="1" vertex="1">
          <mxGeometry x="250.05" y="-120" width="40" height="20" as="geometry" />
        </mxCell>
        <mxCell id="lw3g-8ZHwOabZZO0ukQD-16" value="102" style="text;html=1;strokeColor=none;fillColor=none;align=center;verticalAlign=middle;whiteSpace=wrap;rounded=0;" parent="1" vertex="1">
          <mxGeometry x="275.1" y="-100" width="34.95" height="20" as="geometry" />
        </mxCell>
        <mxCell id="lw3g-8ZHwOabZZO0ukQD-17" value="101" style="text;html=1;strokeColor=none;fillColor=none;align=center;verticalAlign=middle;whiteSpace=wrap;rounded=0;" parent="1" vertex="1">
          <mxGeometry x="250.05" y="-80" width="40" height="20" as="geometry" />
        </mxCell>
        <mxCell id="lw3g-8ZHwOabZZO0ukQD-18" value="1" style="text;html=1;strokeColor=none;fillColor=none;align=center;verticalAlign=middle;whiteSpace=wrap;rounded=0;" parent="1" vertex="1">
          <mxGeometry x="230.05" y="-100" width="30" height="20" as="geometry" />
        </mxCell>
        <mxCell id="lw3g-8ZHwOabZZO0ukQD-35" value="" style="shape=sumEllipse;perimeter=ellipsePerimeter;whiteSpace=wrap;html=1;backgroundOutline=1;" parent="1" vertex="1">
          <mxGeometry x="480.05" y="-130" width="80" height="80" as="geometry" />
        </mxCell>
        <mxCell id="lw3g-8ZHwOabZZO0ukQD-36" value="2" style="text;html=1;strokeColor=none;fillColor=none;align=center;verticalAlign=middle;whiteSpace=wrap;rounded=0;" parent="1" vertex="1">
          <mxGeometry x="500.05" y="-120" width="40" height="20" as="geometry" />
        </mxCell>
        <mxCell id="lw3g-8ZHwOabZZO0ukQD-39" value="3" style="text;html=1;strokeColor=none;fillColor=none;align=center;verticalAlign=middle;whiteSpace=wrap;rounded=0;" parent="1" vertex="1">
          <mxGeometry x="480.05" y="-100" width="30" height="20" as="geometry" />
        </mxCell>
        <mxCell id="lw3g-8ZHwOabZZO0ukQD-40" value="" style="endArrow=classic;html=1;rounded=0;entryX=0;entryY=0.5;entryDx=0;entryDy=0;exitX=1;exitY=0.5;exitDx=0;exitDy=0;" parent="1" source="lw3g-8ZHwOabZZO0ukQD-14" target="lw3g-8ZHwOabZZO0ukQD-35" edge="1">
          <mxGeometry relative="1" as="geometry">
            <mxPoint x="100.05" y="-10" as="sourcePoint" />
            <mxPoint x="190.05" y="-80" as="targetPoint" />
          </mxGeometry>
        </mxCell>
        <mxCell id="lw3g-8ZHwOabZZO0ukQD-41" value="XĐ yêu cầu = 2" style="edgeLabel;resizable=0;html=1;align=center;verticalAlign=middle;" parent="lw3g-8ZHwOabZZO0ukQD-40" connectable="0" vertex="1">
          <mxGeometry relative="1" as="geometry" />
        </mxCell>
        <mxCell id="b5c7_TrdBqpNDd2UQz79-3" style="edgeStyle=orthogonalEdgeStyle;rounded=0;orthogonalLoop=1;jettySize=auto;html=1;exitX=1;exitY=0.5;exitDx=0;exitDy=0;entryX=1;entryY=0;entryDx=0;entryDy=0;" parent="1" source="lw3g-8ZHwOabZZO0ukQD-44" target="YXPyGnK4k45qfTcabzt3-94" edge="1">
          <mxGeometry relative="1" as="geometry" />
        </mxCell>
        <mxCell id="lw3g-8ZHwOabZZO0ukQD-44" value="" style="shape=sumEllipse;perimeter=ellipsePerimeter;whiteSpace=wrap;html=1;backgroundOutline=1;" parent="1" vertex="1">
          <mxGeometry x="710.05" y="-130" width="80" height="80" as="geometry" />
        </mxCell>
        <mxCell id="lw3g-8ZHwOabZZO0ukQD-45" value="3" style="text;html=1;strokeColor=none;fillColor=none;align=center;verticalAlign=middle;whiteSpace=wrap;rounded=0;" parent="1" vertex="1">
          <mxGeometry x="730.05" y="-120" width="40" height="20" as="geometry" />
        </mxCell>
        <mxCell id="lw3g-8ZHwOabZZO0ukQD-47" value="4" style="text;html=1;strokeColor=none;fillColor=none;align=center;verticalAlign=middle;whiteSpace=wrap;rounded=0;" parent="1" vertex="1">
          <mxGeometry x="710.05" y="-100" width="30" height="20" as="geometry" />
        </mxCell>
        <mxCell id="lw3g-8ZHwOabZZO0ukQD-48" value="" style="endArrow=classic;html=1;rounded=0;entryX=0;entryY=0.5;entryDx=0;entryDy=0;exitX=1;exitY=0.5;exitDx=0;exitDy=0;" parent="1" source="lw3g-8ZHwOabZZO0ukQD-35" target="lw3g-8ZHwOabZZO0ukQD-47" edge="1">
          <mxGeometry relative="1" as="geometry">
            <mxPoint x="110.05" as="sourcePoint" />
            <mxPoint x="240.05" y="80" as="targetPoint" />
          </mxGeometry>
        </mxCell>
        <mxCell id="lw3g-8ZHwOabZZO0ukQD-49" value="Lập hợp đồng = 1&lt;br&gt;" style="edgeLabel;resizable=0;html=1;align=center;verticalAlign=middle;" parent="lw3g-8ZHwOabZZO0ukQD-48" connectable="0" vertex="1">
          <mxGeometry relative="1" as="geometry" />
        </mxCell>
        <mxCell id="zY0j3pNIMTybEYQIphn2-6" value="" style="shape=sumEllipse;perimeter=ellipsePerimeter;whiteSpace=wrap;html=1;backgroundOutline=1;" parent="1" vertex="1">
          <mxGeometry x="250.05" y="-40" width="80" height="80" as="geometry" />
        </mxCell>
        <mxCell id="zY0j3pNIMTybEYQIphn2-7" value="4" style="text;html=1;strokeColor=none;fillColor=none;align=center;verticalAlign=middle;whiteSpace=wrap;rounded=0;" parent="1" vertex="1">
          <mxGeometry x="270.05" y="-30" width="40" height="20" as="geometry" />
        </mxCell>
        <mxCell id="zY0j3pNIMTybEYQIphn2-10" value="6" style="text;html=1;strokeColor=none;fillColor=none;align=center;verticalAlign=middle;whiteSpace=wrap;rounded=0;" parent="1" vertex="1">
          <mxGeometry x="250.05" y="-10" width="30" height="20" as="geometry" />
        </mxCell>
        <mxCell id="zY0j3pNIMTybEYQIphn2-11" value="" style="endArrow=classic;html=1;rounded=0;entryX=0;entryY=0.5;entryDx=0;entryDy=0;exitX=1;exitY=0;exitDx=0;exitDy=0;" parent="1" source="lw3g-8ZHwOabZZO0ukQD-4" target="zY0j3pNIMTybEYQIphn2-10" edge="1">
          <mxGeometry relative="1" as="geometry">
            <mxPoint x="70" y="240" as="sourcePoint" />
            <mxPoint x="210" y="170" as="targetPoint" />
          </mxGeometry>
        </mxCell>
        <mxCell id="zY0j3pNIMTybEYQIphn2-12" value="XĐ mục tiêu và object dự án =&amp;nbsp; 1&lt;br&gt;+4 đợi rsc từ (3) + 1 (padding)" style="edgeLabel;resizable=0;html=1;align=center;verticalAlign=middle;rotation=-45;" parent="zY0j3pNIMTybEYQIphn2-11" connectable="0" vertex="1">
          <mxGeometry relative="1" as="geometry" />
        </mxCell>
        <mxCell id="zY0j3pNIMTybEYQIphn2-19" value="" style="shape=sumEllipse;perimeter=ellipsePerimeter;whiteSpace=wrap;html=1;backgroundOutline=1;" parent="1" vertex="1">
          <mxGeometry x="570.05" y="-40" width="80" height="80" as="geometry" />
        </mxCell>
        <mxCell id="zY0j3pNIMTybEYQIphn2-20" value="5" style="text;html=1;strokeColor=none;fillColor=none;align=center;verticalAlign=middle;whiteSpace=wrap;rounded=0;" parent="1" vertex="1">
          <mxGeometry x="590.05" y="-30" width="40" height="20" as="geometry" />
        </mxCell>
        <mxCell id="zY0j3pNIMTybEYQIphn2-23" value="7" style="text;html=1;strokeColor=none;fillColor=none;align=center;verticalAlign=middle;whiteSpace=wrap;rounded=0;" parent="1" vertex="1">
          <mxGeometry x="570.05" y="-10" width="30" height="20" as="geometry" />
        </mxCell>
        <mxCell id="zY0j3pNIMTybEYQIphn2-25" value="" style="endArrow=classic;html=1;rounded=0;entryX=0;entryY=0.5;entryDx=0;entryDy=0;" parent="1" target="zY0j3pNIMTybEYQIphn2-23" edge="1">
          <mxGeometry relative="1" as="geometry">
            <mxPoint x="330.05" as="sourcePoint" />
            <mxPoint x="460.05" y="120" as="targetPoint" />
          </mxGeometry>
        </mxCell>
        <mxCell id="zY0j3pNIMTybEYQIphn2-26" value="XĐ người tham gia dự án =&amp;nbsp; 1" style="edgeLabel;resizable=0;html=1;align=center;verticalAlign=middle;" parent="zY0j3pNIMTybEYQIphn2-25" connectable="0" vertex="1">
          <mxGeometry relative="1" as="geometry" />
        </mxCell>
        <mxCell id="zY0j3pNIMTybEYQIphn2-27" value="" style="shape=sumEllipse;perimeter=ellipsePerimeter;whiteSpace=wrap;html=1;backgroundOutline=1;" parent="1" vertex="1">
          <mxGeometry x="570.05" y="60" width="80" height="80" as="geometry" />
        </mxCell>
        <mxCell id="zY0j3pNIMTybEYQIphn2-28" value="6" style="text;html=1;strokeColor=none;fillColor=none;align=center;verticalAlign=middle;whiteSpace=wrap;rounded=0;" parent="1" vertex="1">
          <mxGeometry x="590.05" y="70" width="40" height="20" as="geometry" />
        </mxCell>
        <mxCell id="zY0j3pNIMTybEYQIphn2-29" value="8" style="text;html=1;strokeColor=none;fillColor=none;align=center;verticalAlign=middle;whiteSpace=wrap;rounded=0;" parent="1" vertex="1">
          <mxGeometry x="570.05" y="90" width="30" height="20" as="geometry" />
        </mxCell>
        <mxCell id="zY0j3pNIMTybEYQIphn2-31" value="" style="endArrow=classic;html=1;rounded=0;entryX=0;entryY=0.5;entryDx=0;entryDy=0;exitX=1;exitY=0.5;exitDx=0;exitDy=0;" parent="1" source="zY0j3pNIMTybEYQIphn2-6" target="zY0j3pNIMTybEYQIphn2-29" edge="1">
          <mxGeometry relative="1" as="geometry">
            <mxPoint x="580.05" as="sourcePoint" />
            <mxPoint x="710.05" y="120" as="targetPoint" />
          </mxGeometry>
        </mxCell>
        <mxCell id="zY0j3pNIMTybEYQIphn2-32" value="Lập kế hoạch dự án = 2" style="edgeLabel;resizable=0;html=1;align=center;verticalAlign=middle;" parent="zY0j3pNIMTybEYQIphn2-31" connectable="0" vertex="1">
          <mxGeometry relative="1" as="geometry" />
        </mxCell>
        <mxCell id="zY0j3pNIMTybEYQIphn2-33" value="" style="shape=sumEllipse;perimeter=ellipsePerimeter;whiteSpace=wrap;html=1;backgroundOutline=1;" parent="1" vertex="1">
          <mxGeometry x="800.05" y="-40" width="80" height="80" as="geometry" />
        </mxCell>
        <mxCell id="zY0j3pNIMTybEYQIphn2-34" value="7" style="text;html=1;strokeColor=none;fillColor=none;align=center;verticalAlign=middle;whiteSpace=wrap;rounded=0;" parent="1" vertex="1">
          <mxGeometry x="820.05" y="-30" width="40" height="20" as="geometry" />
        </mxCell>
        <mxCell id="zY0j3pNIMTybEYQIphn2-35" value="10" style="text;html=1;strokeColor=none;fillColor=none;align=center;verticalAlign=middle;whiteSpace=wrap;rounded=0;" parent="1" vertex="1">
          <mxGeometry x="800.05" y="-10" width="30" height="20" as="geometry" />
        </mxCell>
        <mxCell id="zY0j3pNIMTybEYQIphn2-36" value="" style="endArrow=classic;html=1;rounded=0;entryX=0;entryY=0.5;entryDx=0;entryDy=0;exitX=1;exitY=0.5;exitDx=0;exitDy=0;" parent="1" source="zY0j3pNIMTybEYQIphn2-27" target="zY0j3pNIMTybEYQIphn2-35" edge="1">
          <mxGeometry relative="1" as="geometry">
            <mxPoint x="590.05" y="10" as="sourcePoint" />
            <mxPoint x="740.05" y="10" as="targetPoint" />
          </mxGeometry>
        </mxCell>
        <mxCell id="zY0j3pNIMTybEYQIphn2-38" value="" style="endArrow=classic;html=1;rounded=0;exitX=1;exitY=0.5;exitDx=0;exitDy=0;entryX=0;entryY=0.5;entryDx=0;entryDy=0;" parent="1" source="zY0j3pNIMTybEYQIphn2-19" target="zY0j3pNIMTybEYQIphn2-35" edge="1">
          <mxGeometry relative="1" as="geometry">
            <mxPoint x="590.05" y="110" as="sourcePoint" />
            <mxPoint x="730.05" as="targetPoint" />
          </mxGeometry>
        </mxCell>
        <mxCell id="zY0j3pNIMTybEYQIphn2-39" value="Phân công công việc = 2&lt;br&gt;+1 đợi rsc (6)&amp;nbsp;" style="edgeLabel;resizable=0;html=1;align=center;verticalAlign=middle;" parent="zY0j3pNIMTybEYQIphn2-38" connectable="0" vertex="1">
          <mxGeometry relative="1" as="geometry" />
        </mxCell>
        <mxCell id="b5c7_TrdBqpNDd2UQz79-4" style="edgeStyle=orthogonalEdgeStyle;rounded=0;orthogonalLoop=1;jettySize=auto;html=1;exitX=1;exitY=0.5;exitDx=0;exitDy=0;entryX=1;entryY=0;entryDx=0;entryDy=0;" parent="1" source="zY0j3pNIMTybEYQIphn2-40" target="YXPyGnK4k45qfTcabzt3-94" edge="1">
          <mxGeometry relative="1" as="geometry" />
        </mxCell>
        <mxCell id="zY0j3pNIMTybEYQIphn2-40" value="" style="shape=sumEllipse;perimeter=ellipsePerimeter;whiteSpace=wrap;html=1;backgroundOutline=1;" parent="1" vertex="1">
          <mxGeometry x="1020.05" y="-30" width="80" height="80" as="geometry" />
        </mxCell>
        <mxCell id="zY0j3pNIMTybEYQIphn2-41" value="8" style="text;html=1;strokeColor=none;fillColor=none;align=center;verticalAlign=middle;whiteSpace=wrap;rounded=0;" parent="1" vertex="1">
          <mxGeometry x="1040.05" y="-20" width="40" height="20" as="geometry" />
        </mxCell>
        <mxCell id="zY0j3pNIMTybEYQIphn2-42" value="12" style="text;html=1;strokeColor=none;fillColor=none;align=center;verticalAlign=middle;whiteSpace=wrap;rounded=0;" parent="1" vertex="1">
          <mxGeometry x="1020.05" width="30" height="20" as="geometry" />
        </mxCell>
        <mxCell id="zY0j3pNIMTybEYQIphn2-43" value="" style="endArrow=classic;html=1;rounded=0;" parent="1" edge="1">
          <mxGeometry relative="1" as="geometry">
            <mxPoint x="880.05" as="sourcePoint" />
            <mxPoint x="1020.05" as="targetPoint" />
          </mxGeometry>
        </mxCell>
        <mxCell id="zY0j3pNIMTybEYQIphn2-44" value="XĐ chi phí = 2" style="edgeLabel;resizable=0;html=1;align=center;verticalAlign=middle;" parent="zY0j3pNIMTybEYQIphn2-43" connectable="0" vertex="1">
          <mxGeometry relative="1" as="geometry" />
        </mxCell>
        <mxCell id="b5c7_TrdBqpNDd2UQz79-5" style="edgeStyle=orthogonalEdgeStyle;rounded=0;orthogonalLoop=1;jettySize=auto;html=1;exitX=1;exitY=0.5;exitDx=0;exitDy=0;entryX=1;entryY=0;entryDx=0;entryDy=0;" parent="1" source="zY0j3pNIMTybEYQIphn2-45" target="YXPyGnK4k45qfTcabzt3-94" edge="1">
          <mxGeometry relative="1" as="geometry" />
        </mxCell>
        <mxCell id="zY0j3pNIMTybEYQIphn2-45" value="" style="shape=sumEllipse;perimeter=ellipsePerimeter;whiteSpace=wrap;html=1;backgroundOutline=1;" parent="1" vertex="1">
          <mxGeometry x="1020.05" y="60" width="80" height="80" as="geometry" />
        </mxCell>
        <mxCell id="zY0j3pNIMTybEYQIphn2-46" value="9" style="text;html=1;strokeColor=none;fillColor=none;align=center;verticalAlign=middle;whiteSpace=wrap;rounded=0;" parent="1" vertex="1">
          <mxGeometry x="1040.05" y="70" width="40" height="20" as="geometry" />
        </mxCell>
        <mxCell id="zY0j3pNIMTybEYQIphn2-47" value="12" style="text;html=1;strokeColor=none;fillColor=none;align=center;verticalAlign=middle;whiteSpace=wrap;rounded=0;" parent="1" vertex="1">
          <mxGeometry x="1020.05" y="90" width="30" height="20" as="geometry" />
        </mxCell>
        <mxCell id="zY0j3pNIMTybEYQIphn2-48" value="" style="endArrow=classic;html=1;rounded=0;entryX=0.043;entryY=0.26;entryDx=0;entryDy=0;exitX=1;exitY=0.5;exitDx=0;exitDy=0;entryPerimeter=0;" parent="1" source="zY0j3pNIMTybEYQIphn2-33" target="zY0j3pNIMTybEYQIphn2-45" edge="1">
          <mxGeometry relative="1" as="geometry">
            <mxPoint x="851.05" y="10" as="sourcePoint" />
            <mxPoint x="951.05" y="10" as="targetPoint" />
          </mxGeometry>
        </mxCell>
        <mxCell id="zY0j3pNIMTybEYQIphn2-49" value="XĐ rủi ro = 2" style="edgeLabel;resizable=0;html=1;align=center;verticalAlign=middle;" parent="zY0j3pNIMTybEYQIphn2-48" connectable="0" vertex="1">
          <mxGeometry relative="1" as="geometry" />
        </mxCell>
        <mxCell id="YXPyGnK4k45qfTcabzt3-1" value="" style="shape=sumEllipse;perimeter=ellipsePerimeter;whiteSpace=wrap;html=1;backgroundOutline=1;" parent="1" vertex="1">
          <mxGeometry x="345.1" y="150" width="80" height="80" as="geometry" />
        </mxCell>
        <mxCell id="YXPyGnK4k45qfTcabzt3-2" value="10" style="text;html=1;strokeColor=none;fillColor=none;align=center;verticalAlign=middle;whiteSpace=wrap;rounded=0;" parent="1" vertex="1">
          <mxGeometry x="365.1" y="160" width="40" height="20" as="geometry" />
        </mxCell>
        <mxCell id="YXPyGnK4k45qfTcabzt3-3" value="14" style="text;html=1;strokeColor=none;fillColor=none;align=center;verticalAlign=middle;whiteSpace=wrap;rounded=0;" parent="1" vertex="1">
          <mxGeometry x="345.1" y="180" width="30" height="20" as="geometry" />
        </mxCell>
        <mxCell id="YXPyGnK4k45qfTcabzt3-4" value="" style="endArrow=classic;html=1;rounded=0;entryX=0;entryY=0;entryDx=0;entryDy=0;exitX=1;exitY=0.5;exitDx=0;exitDy=0;" parent="1" source="lw3g-8ZHwOabZZO0ukQD-4" target="YXPyGnK4k45qfTcabzt3-3" edge="1">
          <mxGeometry relative="1" as="geometry">
            <mxPoint x="100" y="230" as="sourcePoint" />
            <mxPoint x="210" y="370" as="targetPoint" />
          </mxGeometry>
        </mxCell>
        <mxCell id="YXPyGnK4k45qfTcabzt3-5" value="Tổng hợp yêu cầu = 1&lt;br&gt;+ 12 đợi rsc từ (9) + 1 padding" style="edgeLabel;resizable=0;html=1;align=center;verticalAlign=middle;rotation=-10;" parent="YXPyGnK4k45qfTcabzt3-4" connectable="0" vertex="1">
          <mxGeometry relative="1" as="geometry" />
        </mxCell>
        <mxCell id="YXPyGnK4k45qfTcabzt3-6" value="" style="shape=sumEllipse;perimeter=ellipsePerimeter;whiteSpace=wrap;html=1;backgroundOutline=1;" parent="1" vertex="1">
          <mxGeometry x="585.0999999999999" y="150" width="80" height="80" as="geometry" />
        </mxCell>
        <mxCell id="YXPyGnK4k45qfTcabzt3-7" value="11" style="text;html=1;strokeColor=none;fillColor=none;align=center;verticalAlign=middle;whiteSpace=wrap;rounded=0;" parent="1" vertex="1">
          <mxGeometry x="605.0999999999999" y="160" width="40" height="20" as="geometry" />
        </mxCell>
        <mxCell id="YXPyGnK4k45qfTcabzt3-8" value="15" style="text;html=1;strokeColor=none;fillColor=none;align=center;verticalAlign=middle;whiteSpace=wrap;rounded=0;" parent="1" vertex="1">
          <mxGeometry x="585.0999999999999" y="180" width="30" height="20" as="geometry" />
        </mxCell>
        <mxCell id="YXPyGnK4k45qfTcabzt3-9" value="" style="endArrow=classic;html=1;rounded=0;entryX=0;entryY=0.5;entryDx=0;entryDy=0;exitX=1;exitY=0.5;exitDx=0;exitDy=0;" parent="1" source="YXPyGnK4k45qfTcabzt3-1" target="YXPyGnK4k45qfTcabzt3-8" edge="1">
          <mxGeometry relative="1" as="geometry">
            <mxPoint x="185.10000000000002" y="-100" as="sourcePoint" />
            <mxPoint x="355.1" y="190" as="targetPoint" />
          </mxGeometry>
        </mxCell>
        <mxCell id="YXPyGnK4k45qfTcabzt3-10" value="Phân tích y/c dự án = 1" style="edgeLabel;resizable=0;html=1;align=center;verticalAlign=middle;" parent="YXPyGnK4k45qfTcabzt3-9" connectable="0" vertex="1">
          <mxGeometry relative="1" as="geometry" />
        </mxCell>
        <mxCell id="YXPyGnK4k45qfTcabzt3-11" value="" style="shape=sumEllipse;perimeter=ellipsePerimeter;whiteSpace=wrap;html=1;backgroundOutline=1;" parent="1" vertex="1">
          <mxGeometry x="775.0999999999999" y="210" width="80" height="80" as="geometry" />
        </mxCell>
        <mxCell id="YXPyGnK4k45qfTcabzt3-12" value="13" style="text;html=1;strokeColor=none;fillColor=none;align=center;verticalAlign=middle;whiteSpace=wrap;rounded=0;" parent="1" vertex="1">
          <mxGeometry x="795.0999999999999" y="220" width="40" height="20" as="geometry" />
        </mxCell>
        <mxCell id="YXPyGnK4k45qfTcabzt3-13" value="19" style="text;html=1;strokeColor=none;fillColor=none;align=center;verticalAlign=middle;whiteSpace=wrap;rounded=0;" parent="1" vertex="1">
          <mxGeometry x="775.0999999999999" y="240" width="30" height="20" as="geometry" />
        </mxCell>
        <mxCell id="YXPyGnK4k45qfTcabzt3-20" value="" style="shape=sumEllipse;perimeter=ellipsePerimeter;whiteSpace=wrap;html=1;backgroundOutline=1;" parent="1" vertex="1">
          <mxGeometry x="775.0999999999999" y="100" width="80" height="80" as="geometry" />
        </mxCell>
        <mxCell id="YXPyGnK4k45qfTcabzt3-21" value="12" style="text;html=1;strokeColor=none;fillColor=none;align=center;verticalAlign=middle;whiteSpace=wrap;rounded=0;" parent="1" vertex="1">
          <mxGeometry x="795.0999999999999" y="110" width="40" height="20" as="geometry" />
        </mxCell>
        <mxCell id="YXPyGnK4k45qfTcabzt3-22" value="17" style="text;html=1;strokeColor=none;fillColor=none;align=center;verticalAlign=middle;whiteSpace=wrap;rounded=0;" parent="1" vertex="1">
          <mxGeometry x="775.0999999999999" y="130" width="30" height="20" as="geometry" />
        </mxCell>
        <mxCell id="YXPyGnK4k45qfTcabzt3-23" value="" style="endArrow=classic;html=1;rounded=0;entryX=0;entryY=0.5;entryDx=0;entryDy=0;exitX=1;exitY=0.5;exitDx=0;exitDy=0;" parent="1" source="YXPyGnK4k45qfTcabzt3-6" target="YXPyGnK4k45qfTcabzt3-22" edge="1">
          <mxGeometry relative="1" as="geometry">
            <mxPoint x="435.1" y="200" as="sourcePoint" />
            <mxPoint x="615.0999999999999" y="200" as="targetPoint" />
          </mxGeometry>
        </mxCell>
        <mxCell id="YXPyGnK4k45qfTcabzt3-24" value="Thiết kế UC= 2&amp;nbsp;" style="edgeLabel;resizable=0;html=1;align=center;verticalAlign=middle;" parent="YXPyGnK4k45qfTcabzt3-23" connectable="0" vertex="1">
          <mxGeometry relative="1" as="geometry" />
        </mxCell>
        <mxCell id="YXPyGnK4k45qfTcabzt3-25" value="" style="endArrow=classic;html=1;rounded=0;entryX=0.024;entryY=0.238;entryDx=0;entryDy=0;exitX=1;exitY=0.5;exitDx=0;exitDy=0;entryPerimeter=0;" parent="1" source="YXPyGnK4k45qfTcabzt3-6" target="YXPyGnK4k45qfTcabzt3-11" edge="1">
          <mxGeometry relative="1" as="geometry">
            <mxPoint x="445.1" y="210" as="sourcePoint" />
            <mxPoint x="625.0999999999999" y="210" as="targetPoint" />
          </mxGeometry>
        </mxCell>
        <mxCell id="YXPyGnK4k45qfTcabzt3-26" value="Thiết kế diagram = 4" style="edgeLabel;resizable=0;html=1;align=center;verticalAlign=middle;" parent="YXPyGnK4k45qfTcabzt3-25" connectable="0" vertex="1">
          <mxGeometry relative="1" as="geometry" />
        </mxCell>
        <mxCell id="YXPyGnK4k45qfTcabzt3-27" value="" style="endArrow=classic;html=1;rounded=0;exitX=1;exitY=0.5;exitDx=0;exitDy=0;entryX=0;entryY=0.5;entryDx=0;entryDy=0;" parent="1" source="YXPyGnK4k45qfTcabzt3-11" target="YXPyGnK4k45qfTcabzt3-31" edge="1">
          <mxGeometry relative="1" as="geometry">
            <mxPoint x="1055.1000000000001" y="290" as="sourcePoint" />
            <mxPoint x="1065.1000000000001" y="190" as="targetPoint" />
          </mxGeometry>
        </mxCell>
        <mxCell id="YXPyGnK4k45qfTcabzt3-29" value="" style="endArrow=classic;html=1;rounded=0;exitX=1;exitY=0.5;exitDx=0;exitDy=0;entryX=0;entryY=0.5;entryDx=0;entryDy=0;" parent="1" source="YXPyGnK4k45qfTcabzt3-20" target="YXPyGnK4k45qfTcabzt3-31" edge="1">
          <mxGeometry relative="1" as="geometry">
            <mxPoint x="695.0999999999999" y="200" as="sourcePoint" />
            <mxPoint x="1065.1000000000001" y="190" as="targetPoint" />
          </mxGeometry>
        </mxCell>
        <mxCell id="YXPyGnK4k45qfTcabzt3-30" value="Thiết kế và tạo CSDL = 4&lt;br&gt;+2 đợi rsc (15)" style="edgeLabel;resizable=0;html=1;align=center;verticalAlign=middle;" parent="YXPyGnK4k45qfTcabzt3-29" connectable="0" vertex="1">
          <mxGeometry relative="1" as="geometry" />
        </mxCell>
        <mxCell id="b5c7_TrdBqpNDd2UQz79-6" style="edgeStyle=orthogonalEdgeStyle;rounded=0;orthogonalLoop=1;jettySize=auto;html=1;exitX=1;exitY=0.5;exitDx=0;exitDy=0;entryX=0.5;entryY=0;entryDx=0;entryDy=0;" parent="1" source="YXPyGnK4k45qfTcabzt3-31" target="YXPyGnK4k45qfTcabzt3-94" edge="1">
          <mxGeometry relative="1" as="geometry" />
        </mxCell>
        <mxCell id="YXPyGnK4k45qfTcabzt3-31" value="" style="shape=sumEllipse;perimeter=ellipsePerimeter;whiteSpace=wrap;html=1;backgroundOutline=1;" parent="1" vertex="1">
          <mxGeometry x="990.05" y="150" width="80" height="80" as="geometry" />
        </mxCell>
        <mxCell id="YXPyGnK4k45qfTcabzt3-32" value="14" style="text;html=1;strokeColor=none;fillColor=none;align=center;verticalAlign=middle;whiteSpace=wrap;rounded=0;" parent="1" vertex="1">
          <mxGeometry x="1010.05" y="160" width="40" height="20" as="geometry" />
        </mxCell>
        <mxCell id="YXPyGnK4k45qfTcabzt3-33" value="23" style="text;html=1;strokeColor=none;fillColor=none;align=center;verticalAlign=middle;whiteSpace=wrap;rounded=0;" parent="1" vertex="1">
          <mxGeometry x="990.05" y="180" width="30" height="20" as="geometry" />
        </mxCell>
        <mxCell id="YXPyGnK4k45qfTcabzt3-34" value="" style="shape=sumEllipse;perimeter=ellipsePerimeter;whiteSpace=wrap;html=1;backgroundOutline=1;" parent="1" vertex="1">
          <mxGeometry x="480.05" y="480" width="80" height="80" as="geometry" />
        </mxCell>
        <mxCell id="YXPyGnK4k45qfTcabzt3-35" value="23" style="text;html=1;strokeColor=none;fillColor=none;align=center;verticalAlign=middle;whiteSpace=wrap;rounded=0;" parent="1" vertex="1">
          <mxGeometry x="500.04999999999995" y="490" width="40" height="20" as="geometry" />
        </mxCell>
        <mxCell id="YXPyGnK4k45qfTcabzt3-36" value="63" style="text;html=1;strokeColor=none;fillColor=none;align=center;verticalAlign=middle;whiteSpace=wrap;rounded=0;" parent="1" vertex="1">
          <mxGeometry x="480.05" y="510" width="30" height="20" as="geometry" />
        </mxCell>
        <mxCell id="YXPyGnK4k45qfTcabzt3-37" value="" style="endArrow=classic;html=1;rounded=0;entryX=0.031;entryY=0.284;entryDx=0;entryDy=0;exitX=1;exitY=1;exitDx=0;exitDy=0;entryPerimeter=0;" parent="1" source="lw3g-8ZHwOabZZO0ukQD-4" target="YXPyGnK4k45qfTcabzt3-34" edge="1">
          <mxGeometry relative="1" as="geometry">
            <mxPoint x="40" y="280" as="sourcePoint" />
            <mxPoint x="210" y="570" as="targetPoint" />
          </mxGeometry>
        </mxCell>
        <mxCell id="YXPyGnK4k45qfTcabzt3-38" value="Kiểm tra sửa lỗi phát sịnh = 6&lt;br&gt;+ 56 đợi rsc từ (21) + 1 padding" style="edgeLabel;resizable=0;html=1;align=center;verticalAlign=middle;rotation=30;" parent="YXPyGnK4k45qfTcabzt3-37" connectable="0" vertex="1">
          <mxGeometry relative="1" as="geometry" />
        </mxCell>
        <mxCell id="YXPyGnK4k45qfTcabzt3-41" value="" style="shape=sumEllipse;perimeter=ellipsePerimeter;whiteSpace=wrap;html=1;backgroundOutline=1;" parent="1" vertex="1">
          <mxGeometry x="775.1" y="480" width="80" height="80" as="geometry" />
        </mxCell>
        <mxCell id="YXPyGnK4k45qfTcabzt3-42" value="24" style="text;html=1;strokeColor=none;fillColor=none;align=center;verticalAlign=middle;whiteSpace=wrap;rounded=0;" parent="1" vertex="1">
          <mxGeometry x="795.0999999999999" y="490" width="40" height="20" as="geometry" />
        </mxCell>
        <mxCell id="YXPyGnK4k45qfTcabzt3-43" value="66" style="text;html=1;strokeColor=none;fillColor=none;align=center;verticalAlign=middle;whiteSpace=wrap;rounded=0;" parent="1" vertex="1">
          <mxGeometry x="775.1" y="510" width="30" height="20" as="geometry" />
        </mxCell>
        <mxCell id="YXPyGnK4k45qfTcabzt3-45" value="" style="endArrow=classic;html=1;rounded=0;entryX=0;entryY=0.5;entryDx=0;entryDy=0;exitX=1;exitY=0.5;exitDx=0;exitDy=0;" parent="1" source="YXPyGnK4k45qfTcabzt3-34" target="YXPyGnK4k45qfTcabzt3-43" edge="1">
          <mxGeometry relative="1" as="geometry">
            <mxPoint x="605.05" y="320" as="sourcePoint" />
            <mxPoint x="765.05" y="320" as="targetPoint" />
          </mxGeometry>
        </mxCell>
        <mxCell id="YXPyGnK4k45qfTcabzt3-46" value="Cập nhật phần mềm nếu lỗi = 3" style="edgeLabel;resizable=0;html=1;align=center;verticalAlign=middle;" parent="YXPyGnK4k45qfTcabzt3-45" connectable="0" vertex="1">
          <mxGeometry relative="1" as="geometry" />
        </mxCell>
        <mxCell id="b5c7_TrdBqpNDd2UQz79-12" style="edgeStyle=orthogonalEdgeStyle;rounded=0;orthogonalLoop=1;jettySize=auto;html=1;exitX=1;exitY=0.5;exitDx=0;exitDy=0;entryX=0;entryY=0;entryDx=0;entryDy=0;" parent="1" source="YXPyGnK4k45qfTcabzt3-49" target="YXPyGnK4k45qfTcabzt3-94" edge="1">
          <mxGeometry relative="1" as="geometry" />
        </mxCell>
        <mxCell id="YXPyGnK4k45qfTcabzt3-49" value="" style="shape=sumEllipse;perimeter=ellipsePerimeter;whiteSpace=wrap;html=1;backgroundOutline=1;" parent="1" vertex="1">
          <mxGeometry x="1000.05" y="480" width="80" height="80" as="geometry" />
        </mxCell>
        <mxCell id="YXPyGnK4k45qfTcabzt3-50" value="25" style="text;html=1;strokeColor=none;fillColor=none;align=center;verticalAlign=middle;whiteSpace=wrap;rounded=0;" parent="1" vertex="1">
          <mxGeometry x="1020.05" y="490" width="40" height="20" as="geometry" />
        </mxCell>
        <mxCell id="YXPyGnK4k45qfTcabzt3-51" value="67" style="text;html=1;strokeColor=none;fillColor=none;align=center;verticalAlign=middle;whiteSpace=wrap;rounded=0;" parent="1" vertex="1">
          <mxGeometry x="1000.05" y="510" width="30" height="20" as="geometry" />
        </mxCell>
        <mxCell id="YXPyGnK4k45qfTcabzt3-52" value="" style="endArrow=classic;html=1;rounded=0;entryX=0;entryY=0.5;entryDx=0;entryDy=0;exitX=1;exitY=0.5;exitDx=0;exitDy=0;" parent="1" source="YXPyGnK4k45qfTcabzt3-41" target="YXPyGnK4k45qfTcabzt3-51" edge="1">
          <mxGeometry relative="1" as="geometry">
            <mxPoint x="600.05" y="530" as="sourcePoint" />
            <mxPoint x="785.05" y="530" as="targetPoint" />
          </mxGeometry>
        </mxCell>
        <mxCell id="YXPyGnK4k45qfTcabzt3-53" value="Ghi lại báo cáo = 1" style="edgeLabel;resizable=0;html=1;align=center;verticalAlign=middle;" parent="YXPyGnK4k45qfTcabzt3-52" connectable="0" vertex="1">
          <mxGeometry relative="1" as="geometry" />
        </mxCell>
        <mxCell id="YXPyGnK4k45qfTcabzt3-54" value="" style="endArrow=classic;html=1;rounded=0;entryX=0.5;entryY=0;entryDx=0;entryDy=0;exitX=0.5;exitY=1;exitDx=0;exitDy=0;" parent="1" source="lw3g-8ZHwOabZZO0ukQD-4" target="YXPyGnK4k45qfTcabzt3-56" edge="1">
          <mxGeometry relative="1" as="geometry">
            <mxPoint x="-10" y="230" as="sourcePoint" />
            <mxPoint x="100" y="970" as="targetPoint" />
          </mxGeometry>
        </mxCell>
        <mxCell id="YXPyGnK4k45qfTcabzt3-55" value="Xác định y/c kiểm thử = 2&amp;nbsp;&lt;br&gt;+ 67 rsc từ (25) +1 padding" style="edgeLabel;resizable=0;html=1;align=center;verticalAlign=middle;rotation=45;" parent="YXPyGnK4k45qfTcabzt3-54" connectable="0" vertex="1">
          <mxGeometry relative="1" as="geometry" />
        </mxCell>
        <mxCell id="YXPyGnK4k45qfTcabzt3-56" value="" style="shape=sumEllipse;perimeter=ellipsePerimeter;whiteSpace=wrap;html=1;backgroundOutline=1;" parent="1" vertex="1">
          <mxGeometry x="333.67999999999995" y="560" width="80" height="80" as="geometry" />
        </mxCell>
        <mxCell id="YXPyGnK4k45qfTcabzt3-57" value="26" style="text;html=1;strokeColor=none;fillColor=none;align=center;verticalAlign=middle;whiteSpace=wrap;rounded=0;" parent="1" vertex="1">
          <mxGeometry x="353.67999999999995" y="570" width="40" height="20" as="geometry" />
        </mxCell>
        <mxCell id="YXPyGnK4k45qfTcabzt3-58" value="70" style="text;html=1;strokeColor=none;fillColor=none;align=center;verticalAlign=middle;whiteSpace=wrap;rounded=0;" parent="1" vertex="1">
          <mxGeometry x="333.67999999999995" y="590" width="30" height="20" as="geometry" />
        </mxCell>
        <mxCell id="YXPyGnK4k45qfTcabzt3-59" value="" style="shape=sumEllipse;perimeter=ellipsePerimeter;whiteSpace=wrap;html=1;backgroundOutline=1;" parent="1" vertex="1">
          <mxGeometry x="578.78" y="560" width="80" height="80" as="geometry" />
        </mxCell>
        <mxCell id="YXPyGnK4k45qfTcabzt3-60" value="27" style="text;html=1;strokeColor=none;fillColor=none;align=center;verticalAlign=middle;whiteSpace=wrap;rounded=0;" parent="1" vertex="1">
          <mxGeometry x="598.7799999999999" y="570" width="40" height="20" as="geometry" />
        </mxCell>
        <mxCell id="YXPyGnK4k45qfTcabzt3-61" value="72" style="text;html=1;strokeColor=none;fillColor=none;align=center;verticalAlign=middle;whiteSpace=wrap;rounded=0;" parent="1" vertex="1">
          <mxGeometry x="578.78" y="590" width="30" height="20" as="geometry" />
        </mxCell>
        <mxCell id="YXPyGnK4k45qfTcabzt3-62" value="" style="endArrow=classic;html=1;rounded=0;entryX=0;entryY=0.5;entryDx=0;entryDy=0;exitX=1;exitY=0.5;exitDx=0;exitDy=0;" parent="1" source="YXPyGnK4k45qfTcabzt3-56" target="YXPyGnK4k45qfTcabzt3-61" edge="1">
          <mxGeometry relative="1" as="geometry">
            <mxPoint x="458.67999999999995" y="400" as="sourcePoint" />
            <mxPoint x="618.68" y="400" as="targetPoint" />
          </mxGeometry>
        </mxCell>
        <mxCell id="YXPyGnK4k45qfTcabzt3-63" value="Lập kế hoạch kiểm thử = 2&amp;nbsp;" style="edgeLabel;resizable=0;html=1;align=center;verticalAlign=middle;" parent="YXPyGnK4k45qfTcabzt3-62" connectable="0" vertex="1">
          <mxGeometry relative="1" as="geometry" />
        </mxCell>
        <mxCell id="YXPyGnK4k45qfTcabzt3-64" value="" style="shape=sumEllipse;perimeter=ellipsePerimeter;whiteSpace=wrap;html=1;backgroundOutline=1;" parent="1" vertex="1">
          <mxGeometry x="803.7299999999999" y="560" width="80" height="80" as="geometry" />
        </mxCell>
        <mxCell id="YXPyGnK4k45qfTcabzt3-65" value="28" style="text;html=1;strokeColor=none;fillColor=none;align=center;verticalAlign=middle;whiteSpace=wrap;rounded=0;" parent="1" vertex="1">
          <mxGeometry x="823.7299999999999" y="570" width="40" height="20" as="geometry" />
        </mxCell>
        <mxCell id="YXPyGnK4k45qfTcabzt3-66" value="76" style="text;html=1;strokeColor=none;fillColor=none;align=center;verticalAlign=middle;whiteSpace=wrap;rounded=0;" parent="1" vertex="1">
          <mxGeometry x="803.7299999999999" y="590" width="30" height="20" as="geometry" />
        </mxCell>
        <mxCell id="YXPyGnK4k45qfTcabzt3-67" value="" style="endArrow=classic;html=1;rounded=0;entryX=0;entryY=0.5;entryDx=0;entryDy=0;exitX=1;exitY=0.5;exitDx=0;exitDy=0;" parent="1" source="YXPyGnK4k45qfTcabzt3-59" target="YXPyGnK4k45qfTcabzt3-66" edge="1">
          <mxGeometry relative="1" as="geometry">
            <mxPoint x="403.7299999999999" y="610" as="sourcePoint" />
            <mxPoint x="588.7299999999999" y="610" as="targetPoint" />
          </mxGeometry>
        </mxCell>
        <mxCell id="YXPyGnK4k45qfTcabzt3-68" value="Lập các test case = 4" style="edgeLabel;resizable=0;html=1;align=center;verticalAlign=middle;" parent="YXPyGnK4k45qfTcabzt3-67" connectable="0" vertex="1">
          <mxGeometry relative="1" as="geometry" />
        </mxCell>
        <mxCell id="b5c7_TrdBqpNDd2UQz79-15" style="edgeStyle=orthogonalEdgeStyle;rounded=0;orthogonalLoop=1;jettySize=auto;html=1;exitX=1;exitY=0.5;exitDx=0;exitDy=0;entryX=0;entryY=0;entryDx=0;entryDy=0;" parent="1" source="YXPyGnK4k45qfTcabzt3-69" target="YXPyGnK4k45qfTcabzt3-94" edge="1">
          <mxGeometry relative="1" as="geometry" />
        </mxCell>
        <mxCell id="YXPyGnK4k45qfTcabzt3-69" value="" style="shape=sumEllipse;perimeter=ellipsePerimeter;whiteSpace=wrap;html=1;backgroundOutline=1;" parent="1" vertex="1">
          <mxGeometry x="1120.05" y="560" width="80" height="80" as="geometry" />
        </mxCell>
        <mxCell id="YXPyGnK4k45qfTcabzt3-70" value="29" style="text;html=1;strokeColor=none;fillColor=none;align=center;verticalAlign=middle;whiteSpace=wrap;rounded=0;" parent="1" vertex="1">
          <mxGeometry x="1140.05" y="570" width="40" height="20" as="geometry" />
        </mxCell>
        <mxCell id="YXPyGnK4k45qfTcabzt3-71" value="84" style="text;html=1;strokeColor=none;fillColor=none;align=center;verticalAlign=middle;whiteSpace=wrap;rounded=0;" parent="1" vertex="1">
          <mxGeometry x="1120.05" y="590" width="30" height="20" as="geometry" />
        </mxCell>
        <mxCell id="YXPyGnK4k45qfTcabzt3-72" value="" style="endArrow=classic;html=1;rounded=0;entryX=0;entryY=0.5;entryDx=0;entryDy=0;exitX=1;exitY=0.5;exitDx=0;exitDy=0;" parent="1" target="YXPyGnK4k45qfTcabzt3-71" edge="1">
          <mxGeometry relative="1" as="geometry">
            <mxPoint x="883.7299999999999" y="600" as="sourcePoint" />
            <mxPoint x="813.7299999999999" y="610" as="targetPoint" />
          </mxGeometry>
        </mxCell>
        <mxCell id="YXPyGnK4k45qfTcabzt3-73" value="Thực hiện các đơn vị kiểm thử = 8" style="edgeLabel;resizable=0;html=1;align=center;verticalAlign=middle;" parent="YXPyGnK4k45qfTcabzt3-72" connectable="0" vertex="1">
          <mxGeometry relative="1" as="geometry" />
        </mxCell>
        <mxCell id="YXPyGnK4k45qfTcabzt3-74" value="" style="endArrow=classic;html=1;rounded=0;entryX=0;entryY=0.5;entryDx=0;entryDy=0;exitX=0.5;exitY=1;exitDx=0;exitDy=0;" parent="1" source="lw3g-8ZHwOabZZO0ukQD-4" target="YXPyGnK4k45qfTcabzt3-76" edge="1">
          <mxGeometry relative="1" as="geometry">
            <mxPoint x="12" y="268" as="sourcePoint" />
            <mxPoint x="-70" y="1190" as="targetPoint" />
          </mxGeometry>
        </mxCell>
        <mxCell id="YXPyGnK4k45qfTcabzt3-75" value="Viết tài liệu hướng dẫn = 3&amp;nbsp;&lt;br&gt;+ 84 rsc từ (29) + 1 padding" style="edgeLabel;resizable=0;html=1;align=center;verticalAlign=middle;rotation=55;" parent="YXPyGnK4k45qfTcabzt3-74" connectable="0" vertex="1">
          <mxGeometry relative="1" as="geometry" />
        </mxCell>
        <mxCell id="YXPyGnK4k45qfTcabzt3-76" value="" style="shape=sumEllipse;perimeter=ellipsePerimeter;whiteSpace=wrap;html=1;backgroundOutline=1;" parent="1" vertex="1">
          <mxGeometry x="286.21000000000004" y="650" width="80" height="80" as="geometry" />
        </mxCell>
        <mxCell id="YXPyGnK4k45qfTcabzt3-77" value="30" style="text;html=1;strokeColor=none;fillColor=none;align=center;verticalAlign=middle;whiteSpace=wrap;rounded=0;" parent="1" vertex="1">
          <mxGeometry x="306.21000000000004" y="660" width="40" height="20" as="geometry" />
        </mxCell>
        <mxCell id="YXPyGnK4k45qfTcabzt3-78" value="88" style="text;html=1;strokeColor=none;fillColor=none;align=center;verticalAlign=middle;whiteSpace=wrap;rounded=0;" parent="1" vertex="1">
          <mxGeometry x="286.21000000000004" y="680" width="37.47" height="20" as="geometry" />
        </mxCell>
        <mxCell id="YXPyGnK4k45qfTcabzt3-79" value="" style="shape=sumEllipse;perimeter=ellipsePerimeter;whiteSpace=wrap;html=1;backgroundOutline=1;" parent="1" vertex="1">
          <mxGeometry x="505.1000000000001" y="650" width="80" height="80" as="geometry" />
        </mxCell>
        <mxCell id="YXPyGnK4k45qfTcabzt3-80" value="31" style="text;html=1;strokeColor=none;fillColor=none;align=center;verticalAlign=middle;whiteSpace=wrap;rounded=0;" parent="1" vertex="1">
          <mxGeometry x="525.0999999999999" y="660" width="40" height="20" as="geometry" />
        </mxCell>
        <mxCell id="YXPyGnK4k45qfTcabzt3-81" value="89" style="text;html=1;strokeColor=none;fillColor=none;align=center;verticalAlign=middle;whiteSpace=wrap;rounded=0;" parent="1" vertex="1">
          <mxGeometry x="505.1000000000001" y="680" width="30" height="20" as="geometry" />
        </mxCell>
        <mxCell id="YXPyGnK4k45qfTcabzt3-82" value="" style="endArrow=classic;html=1;rounded=0;entryX=0;entryY=0.5;entryDx=0;entryDy=0;exitX=1;exitY=0.5;exitDx=0;exitDy=0;" parent="1" source="YXPyGnK4k45qfTcabzt3-76" target="YXPyGnK4k45qfTcabzt3-81" edge="1">
          <mxGeometry relative="1" as="geometry">
            <mxPoint x="411.21000000000004" y="490" as="sourcePoint" />
            <mxPoint x="571.21" y="490" as="targetPoint" />
          </mxGeometry>
        </mxCell>
        <mxCell id="YXPyGnK4k45qfTcabzt3-83" value="Bàn giao sản phẩm = 1" style="edgeLabel;resizable=0;html=1;align=center;verticalAlign=middle;" parent="YXPyGnK4k45qfTcabzt3-82" connectable="0" vertex="1">
          <mxGeometry relative="1" as="geometry" />
        </mxCell>
        <mxCell id="YXPyGnK4k45qfTcabzt3-84" value="" style="shape=sumEllipse;perimeter=ellipsePerimeter;whiteSpace=wrap;html=1;backgroundOutline=1;" parent="1" vertex="1">
          <mxGeometry x="767.4" y="650" width="80" height="80" as="geometry" />
        </mxCell>
        <mxCell id="YXPyGnK4k45qfTcabzt3-85" value="32" style="text;html=1;strokeColor=none;fillColor=none;align=center;verticalAlign=middle;whiteSpace=wrap;rounded=0;" parent="1" vertex="1">
          <mxGeometry x="787.4" y="660" width="40" height="20" as="geometry" />
        </mxCell>
        <mxCell id="YXPyGnK4k45qfTcabzt3-86" value="90" style="text;html=1;strokeColor=none;fillColor=none;align=center;verticalAlign=middle;whiteSpace=wrap;rounded=0;" parent="1" vertex="1">
          <mxGeometry x="767.4" y="680" width="37.42" height="20" as="geometry" />
        </mxCell>
        <mxCell id="YXPyGnK4k45qfTcabzt3-87" value="" style="endArrow=classic;html=1;rounded=0;entryX=0;entryY=0.5;entryDx=0;entryDy=0;exitX=1;exitY=0.5;exitDx=0;exitDy=0;" parent="1" source="YXPyGnK4k45qfTcabzt3-79" target="YXPyGnK4k45qfTcabzt3-86" edge="1">
          <mxGeometry relative="1" as="geometry">
            <mxPoint x="356.2600000000001" y="700" as="sourcePoint" />
            <mxPoint x="541.26" y="700" as="targetPoint" />
          </mxGeometry>
        </mxCell>
        <mxCell id="YXPyGnK4k45qfTcabzt3-88" value="Xác nhận chữ ký customer = 1" style="edgeLabel;resizable=0;html=1;align=center;verticalAlign=middle;" parent="YXPyGnK4k45qfTcabzt3-87" connectable="0" vertex="1">
          <mxGeometry relative="1" as="geometry" />
        </mxCell>
        <mxCell id="YXPyGnK4k45qfTcabzt3-89" value="" style="shape=sumEllipse;perimeter=ellipsePerimeter;whiteSpace=wrap;html=1;backgroundOutline=1;" parent="1" vertex="1">
          <mxGeometry x="1040.05" y="650" width="80" height="80" as="geometry" />
        </mxCell>
        <mxCell id="YXPyGnK4k45qfTcabzt3-90" value="33" style="text;html=1;strokeColor=none;fillColor=none;align=center;verticalAlign=middle;whiteSpace=wrap;rounded=0;" parent="1" vertex="1">
          <mxGeometry x="1060.05" y="660" width="40" height="20" as="geometry" />
        </mxCell>
        <mxCell id="YXPyGnK4k45qfTcabzt3-91" value="91" style="text;html=1;strokeColor=none;fillColor=none;align=center;verticalAlign=middle;whiteSpace=wrap;rounded=0;" parent="1" vertex="1">
          <mxGeometry x="1040.05" y="680" width="30" height="20" as="geometry" />
        </mxCell>
        <mxCell id="YXPyGnK4k45qfTcabzt3-92" value="" style="endArrow=classic;html=1;rounded=0;entryX=0;entryY=0.5;entryDx=0;entryDy=0;exitX=1;exitY=0.5;exitDx=0;exitDy=0;" parent="1" source="YXPyGnK4k45qfTcabzt3-84" target="YXPyGnK4k45qfTcabzt3-91" edge="1">
          <mxGeometry relative="1" as="geometry">
            <mxPoint x="883.73" y="690" as="sourcePoint" />
            <mxPoint x="813.73" y="700" as="targetPoint" />
          </mxGeometry>
        </mxCell>
        <mxCell id="YXPyGnK4k45qfTcabzt3-93" value="Báo cáo hoàn thành dự án = 1" style="edgeLabel;resizable=0;html=1;align=center;verticalAlign=middle;" parent="YXPyGnK4k45qfTcabzt3-92" connectable="0" vertex="1">
          <mxGeometry relative="1" as="geometry" />
        </mxCell>
        <mxCell id="YXPyGnK4k45qfTcabzt3-94" value="" style="shape=sumEllipse;perimeter=ellipsePerimeter;whiteSpace=wrap;html=1;backgroundOutline=1;" parent="1" vertex="1">
          <mxGeometry x="1398.73" y="650" width="80" height="80" as="geometry" />
        </mxCell>
        <mxCell id="YXPyGnK4k45qfTcabzt3-95" value="34" style="text;html=1;strokeColor=none;fillColor=none;align=center;verticalAlign=middle;whiteSpace=wrap;rounded=0;" parent="1" vertex="1">
          <mxGeometry x="1418.73" y="660" width="40" height="20" as="geometry" />
        </mxCell>
        <mxCell id="YXPyGnK4k45qfTcabzt3-96" value="105" style="text;html=1;strokeColor=none;fillColor=none;align=center;verticalAlign=middle;whiteSpace=wrap;rounded=0;" parent="1" vertex="1">
          <mxGeometry x="1398.73" y="680" width="30" height="20" as="geometry" />
        </mxCell>
        <mxCell id="YXPyGnK4k45qfTcabzt3-97" value="" style="endArrow=classic;html=1;rounded=0;entryX=0;entryY=0.5;entryDx=0;entryDy=0;exitX=1;exitY=0.5;exitDx=0;exitDy=0;" parent="1" source="YXPyGnK4k45qfTcabzt3-89" target="YXPyGnK4k45qfTcabzt3-96" edge="1">
          <mxGeometry relative="1" as="geometry">
            <mxPoint x="893.73" y="700" as="sourcePoint" />
            <mxPoint x="1098.68" y="700" as="targetPoint" />
          </mxGeometry>
        </mxCell>
        <mxCell id="YXPyGnK4k45qfTcabzt3-98" value="Thực hiện bảo trì khi cần thiết = 14" style="edgeLabel;resizable=0;html=1;align=center;verticalAlign=middle;" parent="YXPyGnK4k45qfTcabzt3-97" connectable="0" vertex="1">
          <mxGeometry relative="1" as="geometry" />
        </mxCell>
        <mxCell id="XlwtEOg_nJe9LQ749ftn-1" value="" style="shape=sumEllipse;perimeter=ellipsePerimeter;whiteSpace=wrap;html=1;backgroundOutline=1;" parent="1" vertex="1">
          <mxGeometry x="332.52" y="280" width="80" height="80" as="geometry" />
        </mxCell>
        <mxCell id="XlwtEOg_nJe9LQ749ftn-2" value="15" style="text;html=1;strokeColor=none;fillColor=none;align=center;verticalAlign=middle;whiteSpace=wrap;rounded=0;" parent="1" vertex="1">
          <mxGeometry x="352.52" y="290" width="40" height="20" as="geometry" />
        </mxCell>
        <mxCell id="XlwtEOg_nJe9LQ749ftn-3" value="26" style="text;html=1;strokeColor=none;fillColor=none;align=center;verticalAlign=middle;whiteSpace=wrap;rounded=0;" parent="1" vertex="1">
          <mxGeometry x="332.52" y="310" width="30" height="20" as="geometry" />
        </mxCell>
        <mxCell id="XlwtEOg_nJe9LQ749ftn-4" value="" style="shape=sumEllipse;perimeter=ellipsePerimeter;whiteSpace=wrap;html=1;backgroundOutline=1;" parent="1" vertex="1">
          <mxGeometry x="414.00000000000006" y="370" width="80" height="80" as="geometry" />
        </mxCell>
        <mxCell id="XlwtEOg_nJe9LQ749ftn-5" value="16" style="text;html=1;strokeColor=none;fillColor=none;align=center;verticalAlign=middle;whiteSpace=wrap;rounded=0;" parent="1" vertex="1">
          <mxGeometry x="434.00000000000006" y="380" width="40" height="20" as="geometry" />
        </mxCell>
        <mxCell id="XlwtEOg_nJe9LQ749ftn-6" value="26" style="text;html=1;strokeColor=none;fillColor=none;align=center;verticalAlign=middle;whiteSpace=wrap;rounded=0;" parent="1" vertex="1">
          <mxGeometry x="414.00000000000006" y="400" width="30" height="20" as="geometry" />
        </mxCell>
        <mxCell id="XlwtEOg_nJe9LQ749ftn-7" value="" style="endArrow=classic;html=1;rounded=0;entryX=0;entryY=0;entryDx=0;entryDy=0;exitX=1;exitY=0.5;exitDx=0;exitDy=0;" parent="1" source="lw3g-8ZHwOabZZO0ukQD-4" target="XlwtEOg_nJe9LQ749ftn-1" edge="1">
          <mxGeometry relative="1" as="geometry">
            <mxPoint x="80" y="250" as="sourcePoint" />
            <mxPoint x="365" y="470" as="targetPoint" />
          </mxGeometry>
        </mxCell>
        <mxCell id="XlwtEOg_nJe9LQ749ftn-8" value="Lên ý tưởng thiết kế&amp;nbsp; = 2&lt;br&gt;+ 23 đợi rsc từ (14) + 1 padding" style="edgeLabel;resizable=0;html=1;align=center;verticalAlign=middle;rotation=20;" parent="XlwtEOg_nJe9LQ749ftn-7" connectable="0" vertex="1">
          <mxGeometry relative="1" as="geometry" />
        </mxCell>
        <mxCell id="XlwtEOg_nJe9LQ749ftn-9" value="" style="endArrow=classic;html=1;rounded=0;entryX=0;entryY=0.5;entryDx=0;entryDy=0;exitX=1;exitY=0.5;exitDx=0;exitDy=0;" parent="1" source="lw3g-8ZHwOabZZO0ukQD-4" target="XlwtEOg_nJe9LQ749ftn-4" edge="1">
          <mxGeometry relative="1" as="geometry">
            <mxPoint x="90" y="260" as="sourcePoint" />
            <mxPoint x="375" y="480" as="targetPoint" />
          </mxGeometry>
        </mxCell>
        <mxCell id="XlwtEOg_nJe9LQ749ftn-10" value="XĐ các chức nắng chính cần XD = 2&lt;br&gt;+ 23 đợi rsc (14) + 1 padding" style="edgeLabel;resizable=0;html=1;align=center;verticalAlign=middle;rotation=30;" parent="XlwtEOg_nJe9LQ749ftn-9" connectable="0" vertex="1">
          <mxGeometry relative="1" as="geometry" />
        </mxCell>
        <mxCell id="XlwtEOg_nJe9LQ749ftn-34" value="" style="shape=sumEllipse;perimeter=ellipsePerimeter;whiteSpace=wrap;html=1;backgroundOutline=1;" parent="1" vertex="1">
          <mxGeometry x="599.99" y="280" width="80" height="80" as="geometry" />
        </mxCell>
        <mxCell id="XlwtEOg_nJe9LQ749ftn-35" value="17" style="text;html=1;strokeColor=none;fillColor=none;align=center;verticalAlign=middle;whiteSpace=wrap;rounded=0;" parent="1" vertex="1">
          <mxGeometry x="619.99" y="290" width="40" height="20" as="geometry" />
        </mxCell>
        <mxCell id="XlwtEOg_nJe9LQ749ftn-36" value="29" style="text;html=1;strokeColor=none;fillColor=none;align=center;verticalAlign=middle;whiteSpace=wrap;rounded=0;" parent="1" vertex="1">
          <mxGeometry x="599.99" y="310" width="30" height="20" as="geometry" />
        </mxCell>
        <mxCell id="b5c7_TrdBqpNDd2UQz79-8" style="edgeStyle=orthogonalEdgeStyle;rounded=0;orthogonalLoop=1;jettySize=auto;html=1;exitX=1;exitY=0.5;exitDx=0;exitDy=0;entryX=0.5;entryY=0;entryDx=0;entryDy=0;" parent="1" source="XlwtEOg_nJe9LQ749ftn-46" target="YXPyGnK4k45qfTcabzt3-94" edge="1">
          <mxGeometry relative="1" as="geometry" />
        </mxCell>
        <mxCell id="XlwtEOg_nJe9LQ749ftn-46" value="" style="shape=sumEllipse;perimeter=ellipsePerimeter;whiteSpace=wrap;html=1;backgroundOutline=1;" parent="1" vertex="1">
          <mxGeometry x="687.3999999999999" y="340" width="80" height="80" as="geometry" />
        </mxCell>
        <mxCell id="XlwtEOg_nJe9LQ749ftn-47" value="18" style="text;html=1;strokeColor=none;fillColor=none;align=center;verticalAlign=middle;whiteSpace=wrap;rounded=0;" parent="1" vertex="1">
          <mxGeometry x="707.3999999999999" y="350" width="40" height="20" as="geometry" />
        </mxCell>
        <mxCell id="XlwtEOg_nJe9LQ749ftn-48" value="32" style="text;html=1;strokeColor=none;fillColor=none;align=center;verticalAlign=middle;whiteSpace=wrap;rounded=0;" parent="1" vertex="1">
          <mxGeometry x="687.3999999999999" y="370" width="30" height="20" as="geometry" />
        </mxCell>
        <mxCell id="XlwtEOg_nJe9LQ749ftn-49" value="" style="shape=sumEllipse;perimeter=ellipsePerimeter;whiteSpace=wrap;html=1;backgroundOutline=1;" parent="1" vertex="1">
          <mxGeometry x="630.0499999999998" y="420" width="80" height="80" as="geometry" />
        </mxCell>
        <mxCell id="XlwtEOg_nJe9LQ749ftn-50" value="19" style="text;html=1;strokeColor=none;fillColor=none;align=center;verticalAlign=middle;whiteSpace=wrap;rounded=0;" parent="1" vertex="1">
          <mxGeometry x="650.0499999999998" y="430" width="40" height="20" as="geometry" />
        </mxCell>
        <mxCell id="XlwtEOg_nJe9LQ749ftn-51" value="38" style="text;html=1;strokeColor=none;fillColor=none;align=center;verticalAlign=middle;whiteSpace=wrap;rounded=0;" parent="1" vertex="1">
          <mxGeometry x="630.0499999999998" y="450" width="30" height="20" as="geometry" />
        </mxCell>
        <mxCell id="XlwtEOg_nJe9LQ749ftn-52" value="" style="endArrow=classic;html=1;rounded=0;entryX=0;entryY=0.5;entryDx=0;entryDy=0;exitX=1;exitY=0.5;exitDx=0;exitDy=0;" parent="1" source="XlwtEOg_nJe9LQ749ftn-1" target="XlwtEOg_nJe9LQ749ftn-36" edge="1">
          <mxGeometry relative="1" as="geometry">
            <mxPoint x="422.4699999999999" y="60" as="sourcePoint" />
            <mxPoint x="582.47" y="60" as="targetPoint" />
          </mxGeometry>
        </mxCell>
        <mxCell id="XlwtEOg_nJe9LQ749ftn-53" value="Phác thảo gd website = 3" style="edgeLabel;resizable=0;html=1;align=center;verticalAlign=middle;" parent="XlwtEOg_nJe9LQ749ftn-52" connectable="0" vertex="1">
          <mxGeometry relative="1" as="geometry" />
        </mxCell>
        <mxCell id="XlwtEOg_nJe9LQ749ftn-54" value="" style="endArrow=classic;html=1;rounded=0;entryX=0;entryY=0.75;entryDx=0;entryDy=0;exitX=1;exitY=0.5;exitDx=0;exitDy=0;" parent="1" source="XlwtEOg_nJe9LQ749ftn-4" target="XlwtEOg_nJe9LQ749ftn-48" edge="1">
          <mxGeometry relative="1" as="geometry">
            <mxPoint x="585.0499999999998" y="160" as="sourcePoint" />
            <mxPoint x="773.0499999999998" y="160" as="targetPoint" />
          </mxGeometry>
        </mxCell>
        <mxCell id="XlwtEOg_nJe9LQ749ftn-55" value="XD func login, signup = 6" style="edgeLabel;resizable=0;html=1;align=center;verticalAlign=middle;" parent="XlwtEOg_nJe9LQ749ftn-54" connectable="0" vertex="1">
          <mxGeometry relative="1" as="geometry" />
        </mxCell>
        <mxCell id="XlwtEOg_nJe9LQ749ftn-56" value="" style="endArrow=classic;html=1;rounded=0;entryX=0;entryY=0.75;entryDx=0;entryDy=0;exitX=1;exitY=0.5;exitDx=0;exitDy=0;" parent="1" source="XlwtEOg_nJe9LQ749ftn-4" target="XlwtEOg_nJe9LQ749ftn-51" edge="1">
          <mxGeometry relative="1" as="geometry">
            <mxPoint x="460.05" y="430" as="sourcePoint" />
            <mxPoint x="610.0499999999998" y="365" as="targetPoint" />
          </mxGeometry>
        </mxCell>
        <mxCell id="XlwtEOg_nJe9LQ749ftn-57" value="XD func qly cơ bản = 12" style="edgeLabel;resizable=0;html=1;align=center;verticalAlign=middle;" parent="XlwtEOg_nJe9LQ749ftn-56" connectable="0" vertex="1">
          <mxGeometry relative="1" as="geometry" />
        </mxCell>
        <mxCell id="b5c7_TrdBqpNDd2UQz79-9" style="edgeStyle=orthogonalEdgeStyle;rounded=0;orthogonalLoop=1;jettySize=auto;html=1;exitX=1;exitY=0.5;exitDx=0;exitDy=0;entryX=0;entryY=0;entryDx=0;entryDy=0;" parent="1" source="XlwtEOg_nJe9LQ749ftn-58" target="YXPyGnK4k45qfTcabzt3-94" edge="1">
          <mxGeometry relative="1" as="geometry" />
        </mxCell>
        <mxCell id="XlwtEOg_nJe9LQ749ftn-58" value="" style="shape=sumEllipse;perimeter=ellipsePerimeter;whiteSpace=wrap;html=1;backgroundOutline=1;" parent="1" vertex="1">
          <mxGeometry x="894.9999999999999" y="420" width="80" height="80" as="geometry" />
        </mxCell>
        <mxCell id="XlwtEOg_nJe9LQ749ftn-59" value="20" style="text;html=1;strokeColor=none;fillColor=none;align=center;verticalAlign=middle;whiteSpace=wrap;rounded=0;" parent="1" vertex="1">
          <mxGeometry x="914.9999999999999" y="430" width="40" height="20" as="geometry" />
        </mxCell>
        <mxCell id="XlwtEOg_nJe9LQ749ftn-60" value="50" style="text;html=1;strokeColor=none;fillColor=none;align=center;verticalAlign=middle;whiteSpace=wrap;rounded=0;" parent="1" vertex="1">
          <mxGeometry x="894.9999999999999" y="450" width="30" height="20" as="geometry" />
        </mxCell>
        <mxCell id="XlwtEOg_nJe9LQ749ftn-61" value="" style="endArrow=classic;html=1;rounded=0;entryX=0;entryY=0.5;entryDx=0;entryDy=0;exitX=1;exitY=0.5;exitDx=0;exitDy=0;" parent="1" source="XlwtEOg_nJe9LQ749ftn-49" target="XlwtEOg_nJe9LQ749ftn-60" edge="1">
          <mxGeometry relative="1" as="geometry">
            <mxPoint x="495" y="380" as="sourcePoint" />
            <mxPoint x="639.9999999999999" y="475" as="targetPoint" />
          </mxGeometry>
        </mxCell>
        <mxCell id="XlwtEOg_nJe9LQ749ftn-62" value="XD func nâng cao = 12" style="edgeLabel;resizable=0;html=1;align=center;verticalAlign=middle;" parent="XlwtEOg_nJe9LQ749ftn-61" connectable="0" vertex="1">
          <mxGeometry relative="1" as="geometry" />
        </mxCell>
        <mxCell id="XlwtEOg_nJe9LQ749ftn-68" value="" style="shape=sumEllipse;perimeter=ellipsePerimeter;whiteSpace=wrap;html=1;backgroundOutline=1;" parent="1" vertex="1">
          <mxGeometry x="867.47" y="280" width="80" height="80" as="geometry" />
        </mxCell>
        <mxCell id="XlwtEOg_nJe9LQ749ftn-69" value="21" style="text;html=1;strokeColor=none;fillColor=none;align=center;verticalAlign=middle;whiteSpace=wrap;rounded=0;" parent="1" vertex="1">
          <mxGeometry x="887.47" y="290" width="40" height="20" as="geometry" />
        </mxCell>
        <mxCell id="XlwtEOg_nJe9LQ749ftn-70" value="35" style="text;html=1;strokeColor=none;fillColor=none;align=center;verticalAlign=middle;whiteSpace=wrap;rounded=0;" parent="1" vertex="1">
          <mxGeometry x="867.47" y="310" width="30" height="20" as="geometry" />
        </mxCell>
        <mxCell id="XlwtEOg_nJe9LQ749ftn-71" value="" style="endArrow=classic;html=1;rounded=0;entryX=0;entryY=0.5;entryDx=0;entryDy=0;exitX=1;exitY=0.5;exitDx=0;exitDy=0;" parent="1" source="XlwtEOg_nJe9LQ749ftn-34" target="XlwtEOg_nJe9LQ749ftn-70" edge="1">
          <mxGeometry relative="1" as="geometry">
            <mxPoint x="422.4699999999999" y="330" as="sourcePoint" />
            <mxPoint x="610.47" y="330" as="targetPoint" />
          </mxGeometry>
        </mxCell>
        <mxCell id="XlwtEOg_nJe9LQ749ftn-72" value="XD giao diện chính = 6" style="edgeLabel;resizable=0;html=1;align=center;verticalAlign=middle;" parent="XlwtEOg_nJe9LQ749ftn-71" connectable="0" vertex="1">
          <mxGeometry relative="1" as="geometry" />
        </mxCell>
        <mxCell id="b5c7_TrdBqpNDd2UQz79-7" style="edgeStyle=orthogonalEdgeStyle;rounded=0;orthogonalLoop=1;jettySize=auto;html=1;exitX=1;exitY=0.5;exitDx=0;exitDy=0;entryX=0.5;entryY=0;entryDx=0;entryDy=0;" parent="1" source="XlwtEOg_nJe9LQ749ftn-80" target="YXPyGnK4k45qfTcabzt3-94" edge="1">
          <mxGeometry relative="1" as="geometry" />
        </mxCell>
        <mxCell id="XlwtEOg_nJe9LQ749ftn-80" value="" style="shape=sumEllipse;perimeter=ellipsePerimeter;whiteSpace=wrap;html=1;backgroundOutline=1;" parent="1" vertex="1">
          <mxGeometry x="1132.5200000000002" y="280" width="80" height="80" as="geometry" />
        </mxCell>
        <mxCell id="XlwtEOg_nJe9LQ749ftn-81" value="21" style="text;html=1;strokeColor=none;fillColor=none;align=center;verticalAlign=middle;whiteSpace=wrap;rounded=0;" parent="1" vertex="1">
          <mxGeometry x="1152.5200000000002" y="290" width="40" height="20" as="geometry" />
        </mxCell>
        <mxCell id="XlwtEOg_nJe9LQ749ftn-82" value="56" style="text;html=1;strokeColor=none;fillColor=none;align=center;verticalAlign=middle;whiteSpace=wrap;rounded=0;" parent="1" vertex="1">
          <mxGeometry x="1132.5200000000002" y="310" width="30" height="20" as="geometry" />
        </mxCell>
        <mxCell id="XlwtEOg_nJe9LQ749ftn-83" value="" style="endArrow=classic;html=1;rounded=0;entryX=0;entryY=0.5;entryDx=0;entryDy=0;exitX=1;exitY=0.5;exitDx=0;exitDy=0;" parent="1" source="XlwtEOg_nJe9LQ749ftn-68" target="XlwtEOg_nJe9LQ749ftn-82" edge="1">
          <mxGeometry relative="1" as="geometry">
            <mxPoint x="690.47" y="330" as="sourcePoint" />
            <mxPoint x="877.47" y="330" as="targetPoint" />
          </mxGeometry>
        </mxCell>
        <mxCell id="XlwtEOg_nJe9LQ749ftn-84" value="Bổ sung GD chức năng = 6&lt;br&gt;+ 15 đợi src từ (20)" style="edgeLabel;resizable=0;html=1;align=center;verticalAlign=middle;" parent="XlwtEOg_nJe9LQ749ftn-83" connectable="0" vertex="1">
          <mxGeometry relative="1" as="geometry" />
        </mxCell>
        <mxCell id="b5c7_TrdBqpNDd2UQz79-16" value="105" style="text;html=1;strokeColor=none;fillColor=none;align=center;verticalAlign=middle;whiteSpace=wrap;rounded=0;" parent="1" vertex="1">
          <mxGeometry x="1448.73" y="680" width="30" height="20" as="geometry" />
        </mxCell>
        <mxCell id="b5c7_TrdBqpNDd2UQz79-17" value="0" style="text;html=1;strokeColor=none;fillColor=none;align=center;verticalAlign=middle;whiteSpace=wrap;rounded=0;" parent="1" vertex="1">
          <mxGeometry x="1423.73" y="700" width="30" height="20" as="geometry" />
        </mxCell>
        <mxCell id="b5c7_TrdBqpNDd2UQz79-19" value="105" style="text;html=1;strokeColor=none;fillColor=none;align=center;verticalAlign=middle;whiteSpace=wrap;rounded=0;" parent="1" vertex="1">
          <mxGeometry x="1070.05" width="30" height="20" as="geometry" />
        </mxCell>
        <mxCell id="b5c7_TrdBqpNDd2UQz79-20" value="105" style="text;html=1;strokeColor=none;fillColor=none;align=center;verticalAlign=middle;whiteSpace=wrap;rounded=0;" parent="1" vertex="1">
          <mxGeometry x="1070.05" y="90" width="30" height="20" as="geometry" />
        </mxCell>
        <mxCell id="b5c7_TrdBqpNDd2UQz79-21" value="105" style="text;html=1;strokeColor=none;fillColor=none;align=center;verticalAlign=middle;whiteSpace=wrap;rounded=0;" parent="1" vertex="1">
          <mxGeometry x="1040.05" y="180" width="30" height="20" as="geometry" />
        </mxCell>
        <mxCell id="b5c7_TrdBqpNDd2UQz79-22" value="105" style="text;html=1;strokeColor=none;fillColor=none;align=center;verticalAlign=middle;whiteSpace=wrap;rounded=0;" parent="1" vertex="1">
          <mxGeometry x="1180" y="310" width="30" height="20" as="geometry" />
        </mxCell>
        <mxCell id="b5c7_TrdBqpNDd2UQz79-23" value="105" style="text;html=1;strokeColor=none;fillColor=none;align=center;verticalAlign=middle;whiteSpace=wrap;rounded=0;" parent="1" vertex="1">
          <mxGeometry x="735.0500000000001" y="370" width="30" height="20" as="geometry" />
        </mxCell>
        <mxCell id="b5c7_TrdBqpNDd2UQz79-24" value="105" style="text;html=1;strokeColor=none;fillColor=none;align=center;verticalAlign=middle;whiteSpace=wrap;rounded=0;" parent="1" vertex="1">
          <mxGeometry x="945" y="450" width="30" height="20" as="geometry" />
        </mxCell>
        <mxCell id="b5c7_TrdBqpNDd2UQz79-25" value="105" style="text;html=1;strokeColor=none;fillColor=none;align=center;verticalAlign=middle;whiteSpace=wrap;rounded=0;" parent="1" vertex="1">
          <mxGeometry x="760.0500000000001" y="-100" width="30" height="20" as="geometry" />
        </mxCell>
        <mxCell id="b5c7_TrdBqpNDd2UQz79-26" value="105" style="text;html=1;strokeColor=none;fillColor=none;align=center;verticalAlign=middle;whiteSpace=wrap;rounded=0;" parent="1" vertex="1">
          <mxGeometry x="1050.05" y="510" width="30" height="20" as="geometry" />
        </mxCell>
        <mxCell id="b5c7_TrdBqpNDd2UQz79-27" value="105" style="text;html=1;strokeColor=none;fillColor=none;align=center;verticalAlign=middle;whiteSpace=wrap;rounded=0;" parent="1" vertex="1">
          <mxGeometry x="1170.05" y="590" width="30" height="20" as="geometry" />
        </mxCell>
        <mxCell id="b5c7_TrdBqpNDd2UQz79-30" value="91" style="text;html=1;strokeColor=none;fillColor=none;align=center;verticalAlign=middle;whiteSpace=wrap;rounded=0;" parent="1" vertex="1">
          <mxGeometry x="1090.05" y="680" width="30" height="20" as="geometry" />
        </mxCell>
        <mxCell id="b5c7_TrdBqpNDd2UQz79-31" value="90" style="text;html=1;strokeColor=none;fillColor=none;align=center;verticalAlign=middle;whiteSpace=wrap;rounded=0;" parent="1" vertex="1">
          <mxGeometry x="809.98" y="680" width="37.42" height="20" as="geometry" />
        </mxCell>
        <mxCell id="b5c7_TrdBqpNDd2UQz79-32" value="89" style="text;html=1;strokeColor=none;fillColor=none;align=center;verticalAlign=middle;whiteSpace=wrap;rounded=0;" parent="1" vertex="1">
          <mxGeometry x="555.1000000000001" y="680" width="30" height="20" as="geometry" />
        </mxCell>
        <mxCell id="b5c7_TrdBqpNDd2UQz79-33" value="88" style="text;html=1;strokeColor=none;fillColor=none;align=center;verticalAlign=middle;whiteSpace=wrap;rounded=0;" parent="1" vertex="1">
          <mxGeometry x="330.05000000000007" y="680" width="37.47" height="20" as="geometry" />
        </mxCell>
        <mxCell id="b5c7_TrdBqpNDd2UQz79-34" value="0" style="text;html=1;strokeColor=none;fillColor=none;align=center;verticalAlign=middle;whiteSpace=wrap;rounded=0;" parent="1" vertex="1">
          <mxGeometry x="1065.05" y="710" width="30" height="20" as="geometry" />
        </mxCell>
        <mxCell id="b5c7_TrdBqpNDd2UQz79-35" value="0" style="text;html=1;strokeColor=none;fillColor=none;align=center;verticalAlign=middle;whiteSpace=wrap;rounded=0;" parent="1" vertex="1">
          <mxGeometry x="792.4" y="710" width="30" height="20" as="geometry" />
        </mxCell>
        <mxCell id="b5c7_TrdBqpNDd2UQz79-36" value="0" style="text;html=1;strokeColor=none;fillColor=none;align=center;verticalAlign=middle;whiteSpace=wrap;rounded=0;" parent="1" vertex="1">
          <mxGeometry x="530.1" y="710" width="30" height="20" as="geometry" />
        </mxCell>
        <mxCell id="b5c7_TrdBqpNDd2UQz79-37" value="0" style="text;html=1;strokeColor=none;fillColor=none;align=center;verticalAlign=middle;whiteSpace=wrap;rounded=0;" parent="1" vertex="1">
          <mxGeometry x="310.04999999999995" y="710" width="30" height="20" as="geometry" />
        </mxCell>
        <mxCell id="b5c7_TrdBqpNDd2UQz79-38" value="21" style="text;html=1;strokeColor=none;fillColor=none;align=center;verticalAlign=middle;whiteSpace=wrap;rounded=0;" parent="1" vertex="1">
          <mxGeometry x="1145.05" y="610" width="30" height="20" as="geometry" />
        </mxCell>
        <mxCell id="b5c7_TrdBqpNDd2UQz79-39" value="97" style="text;html=1;strokeColor=none;fillColor=none;align=center;verticalAlign=middle;whiteSpace=wrap;rounded=0;" parent="1" vertex="1">
          <mxGeometry x="853.73" y="590" width="30" height="20" as="geometry" />
        </mxCell>
        <mxCell id="b5c7_TrdBqpNDd2UQz79-40" value="21" style="text;html=1;strokeColor=none;fillColor=none;align=center;verticalAlign=middle;whiteSpace=wrap;rounded=0;" parent="1" vertex="1">
          <mxGeometry x="828.73" y="610" width="30" height="20" as="geometry" />
        </mxCell>
        <mxCell id="b5c7_TrdBqpNDd2UQz79-41" value="93" style="text;html=1;strokeColor=none;fillColor=none;align=center;verticalAlign=middle;whiteSpace=wrap;rounded=0;" parent="1" vertex="1">
          <mxGeometry x="624.99" y="590" width="30" height="20" as="geometry" />
        </mxCell>
        <mxCell id="b5c7_TrdBqpNDd2UQz79-42" value="21" style="text;html=1;strokeColor=none;fillColor=none;align=center;verticalAlign=middle;whiteSpace=wrap;rounded=0;" parent="1" vertex="1">
          <mxGeometry x="603.78" y="610" width="30" height="20" as="geometry" />
        </mxCell>
        <mxCell id="b5c7_TrdBqpNDd2UQz79-43" value="91" style="text;html=1;strokeColor=none;fillColor=none;align=center;verticalAlign=middle;whiteSpace=wrap;rounded=0;" parent="1" vertex="1">
          <mxGeometry x="382.52" y="590" width="30" height="20" as="geometry" />
        </mxCell>
        <mxCell id="b5c7_TrdBqpNDd2UQz79-44" value="21" style="text;html=1;strokeColor=none;fillColor=none;align=center;verticalAlign=middle;whiteSpace=wrap;rounded=0;" parent="1" vertex="1">
          <mxGeometry x="353.67999999999995" y="610" width="30" height="20" as="geometry" />
        </mxCell>
        <mxCell id="b5c7_TrdBqpNDd2UQz79-45" value="38" style="text;html=1;strokeColor=none;fillColor=none;align=center;verticalAlign=middle;whiteSpace=wrap;rounded=0;" parent="1" vertex="1">
          <mxGeometry x="1025.05" y="530" width="30" height="20" as="geometry" />
        </mxCell>
        <mxCell id="b5c7_TrdBqpNDd2UQz79-47" value="38" style="text;html=1;strokeColor=none;fillColor=none;align=center;verticalAlign=middle;whiteSpace=wrap;rounded=0;" parent="1" vertex="1">
          <mxGeometry x="798.73" y="530" width="30" height="20" as="geometry" />
        </mxCell>
        <mxCell id="b5c7_TrdBqpNDd2UQz79-48" value="38" style="text;html=1;strokeColor=none;fillColor=none;align=center;verticalAlign=middle;whiteSpace=wrap;rounded=0;" parent="1" vertex="1">
          <mxGeometry x="505.04999999999995" y="530" width="30" height="20" as="geometry" />
        </mxCell>
        <mxCell id="b5c7_TrdBqpNDd2UQz79-49" value="104" style="text;html=1;strokeColor=none;fillColor=none;align=center;verticalAlign=middle;whiteSpace=wrap;rounded=0;" parent="1" vertex="1">
          <mxGeometry x="822.4" y="510" width="30" height="20" as="geometry" />
        </mxCell>
        <mxCell id="b5c7_TrdBqpNDd2UQz79-50" value="101" style="text;html=1;strokeColor=none;fillColor=none;align=center;verticalAlign=middle;whiteSpace=wrap;rounded=0;" parent="1" vertex="1">
          <mxGeometry x="530.05" y="510" width="30" height="20" as="geometry" />
        </mxCell>
        <mxCell id="b5c7_TrdBqpNDd2UQz79-51" value="55" style="text;html=1;strokeColor=none;fillColor=none;align=center;verticalAlign=middle;whiteSpace=wrap;rounded=0;" parent="1" vertex="1">
          <mxGeometry x="920" y="470" width="30" height="20" as="geometry" />
        </mxCell>
        <mxCell id="b5c7_TrdBqpNDd2UQz79-52" value="93" style="text;html=1;strokeColor=none;fillColor=none;align=center;verticalAlign=middle;whiteSpace=wrap;rounded=0;" parent="1" vertex="1">
          <mxGeometry x="677.4" y="450" width="30" height="20" as="geometry" />
        </mxCell>
        <mxCell id="b5c7_TrdBqpNDd2UQz79-53" value="55" style="text;html=1;strokeColor=none;fillColor=none;align=center;verticalAlign=middle;whiteSpace=wrap;rounded=0;" parent="1" vertex="1">
          <mxGeometry x="655.05" y="470" width="30" height="20" as="geometry" />
        </mxCell>
        <mxCell id="b5c7_TrdBqpNDd2UQz79-54" value="73" style="text;html=1;strokeColor=none;fillColor=none;align=center;verticalAlign=middle;whiteSpace=wrap;rounded=0;" parent="1" vertex="1">
          <mxGeometry x="712.4000000000001" y="390" width="30" height="20" as="geometry" />
        </mxCell>
        <mxCell id="b5c7_TrdBqpNDd2UQz79-55" value="81" style="text;html=1;strokeColor=none;fillColor=none;align=center;verticalAlign=middle;whiteSpace=wrap;rounded=0;" parent="1" vertex="1">
          <mxGeometry x="464" y="400" width="30" height="20" as="geometry" />
        </mxCell>
        <mxCell id="b5c7_TrdBqpNDd2UQz79-56" value="55" style="text;html=1;strokeColor=none;fillColor=none;align=center;verticalAlign=middle;whiteSpace=wrap;rounded=0;" parent="1" vertex="1">
          <mxGeometry x="438.99999999999994" y="420" width="30" height="20" as="geometry" />
        </mxCell>
        <mxCell id="b5c7_TrdBqpNDd2UQz79-57" value="49" style="text;html=1;strokeColor=none;fillColor=none;align=center;verticalAlign=middle;whiteSpace=wrap;rounded=0;" parent="1" vertex="1">
          <mxGeometry x="1157.52" y="330" width="30" height="20" as="geometry" />
        </mxCell>
        <mxCell id="b5c7_TrdBqpNDd2UQz79-58" value="84" style="text;html=1;strokeColor=none;fillColor=none;align=center;verticalAlign=middle;whiteSpace=wrap;rounded=0;" parent="1" vertex="1">
          <mxGeometry x="917.47" y="310" width="30" height="20" as="geometry" />
        </mxCell>
        <mxCell id="b5c7_TrdBqpNDd2UQz79-59" value="49" style="text;html=1;strokeColor=none;fillColor=none;align=center;verticalAlign=middle;whiteSpace=wrap;rounded=0;" parent="1" vertex="1">
          <mxGeometry x="892.47" y="330" width="30" height="20" as="geometry" />
        </mxCell>
        <mxCell id="b5c7_TrdBqpNDd2UQz79-60" value="78" style="text;html=1;strokeColor=none;fillColor=none;align=center;verticalAlign=middle;whiteSpace=wrap;rounded=0;" parent="1" vertex="1">
          <mxGeometry x="649.99" y="310" width="30" height="20" as="geometry" />
        </mxCell>
        <mxCell id="b5c7_TrdBqpNDd2UQz79-61" value="49" style="text;html=1;strokeColor=none;fillColor=none;align=center;verticalAlign=middle;whiteSpace=wrap;rounded=0;" parent="1" vertex="1">
          <mxGeometry x="624.99" y="330" width="30" height="20" as="geometry" />
        </mxCell>
        <mxCell id="b5c7_TrdBqpNDd2UQz79-62" value="49" style="text;html=1;strokeColor=none;fillColor=none;align=center;verticalAlign=middle;whiteSpace=wrap;rounded=0;" parent="1" vertex="1">
          <mxGeometry x="357.52" y="330" width="30" height="20" as="geometry" />
        </mxCell>
        <mxCell id="b5c7_TrdBqpNDd2UQz79-63" value="75" style="text;html=1;strokeColor=none;fillColor=none;align=center;verticalAlign=middle;whiteSpace=wrap;rounded=0;" parent="1" vertex="1">
          <mxGeometry x="382.52" y="310" width="30" height="20" as="geometry" />
        </mxCell>
        <mxCell id="b5c7_TrdBqpNDd2UQz79-64" value="82" style="text;html=1;strokeColor=none;fillColor=none;align=center;verticalAlign=middle;whiteSpace=wrap;rounded=0;" parent="1" vertex="1">
          <mxGeometry x="1015.05" y="200" width="30" height="20" as="geometry" />
        </mxCell>
        <mxCell id="b5c7_TrdBqpNDd2UQz79-65" value="101" style="text;html=1;strokeColor=none;fillColor=none;align=center;verticalAlign=middle;whiteSpace=wrap;rounded=0;" parent="1" vertex="1">
          <mxGeometry x="823.73" y="240" width="30" height="20" as="geometry" />
        </mxCell>
        <mxCell id="b5c7_TrdBqpNDd2UQz79-66" value="82" style="text;html=1;strokeColor=none;fillColor=none;align=center;verticalAlign=middle;whiteSpace=wrap;rounded=0;" parent="1" vertex="1">
          <mxGeometry x="800.0999999999999" y="260" width="30" height="20" as="geometry" />
        </mxCell>
        <mxCell id="b5c7_TrdBqpNDd2UQz79-67" value="99" style="text;html=1;strokeColor=none;fillColor=none;align=center;verticalAlign=middle;whiteSpace=wrap;rounded=0;" parent="1" vertex="1">
          <mxGeometry x="825.05" y="130" width="30" height="20" as="geometry" />
        </mxCell>
        <mxCell id="b5c7_TrdBqpNDd2UQz79-68" value="82" style="text;html=1;strokeColor=none;fillColor=none;align=center;verticalAlign=middle;whiteSpace=wrap;rounded=0;" parent="1" vertex="1">
          <mxGeometry x="800.0999999999999" y="150" width="30" height="20" as="geometry" />
        </mxCell>
        <mxCell id="b5c7_TrdBqpNDd2UQz79-69" value="97" style="text;html=1;strokeColor=none;fillColor=none;align=center;verticalAlign=middle;whiteSpace=wrap;rounded=0;" parent="1" vertex="1">
          <mxGeometry x="633.78" y="180" width="30" height="20" as="geometry" />
        </mxCell>
        <mxCell id="b5c7_TrdBqpNDd2UQz79-70" value="82" style="text;html=1;strokeColor=none;fillColor=none;align=center;verticalAlign=middle;whiteSpace=wrap;rounded=0;" parent="1" vertex="1">
          <mxGeometry x="610.0999999999999" y="200" width="30" height="20" as="geometry" />
        </mxCell>
        <mxCell id="b5c7_TrdBqpNDd2UQz79-71" value="96" style="text;html=1;strokeColor=none;fillColor=none;align=center;verticalAlign=middle;whiteSpace=wrap;rounded=0;" parent="1" vertex="1">
          <mxGeometry x="395.09999999999997" y="180" width="30" height="20" as="geometry" />
        </mxCell>
        <mxCell id="b5c7_TrdBqpNDd2UQz79-72" value="82" style="text;html=1;strokeColor=none;fillColor=none;align=center;verticalAlign=middle;whiteSpace=wrap;rounded=0;" parent="1" vertex="1">
          <mxGeometry x="370.0999999999999" y="200" width="30" height="20" as="geometry" />
        </mxCell>
        <mxCell id="b5c7_TrdBqpNDd2UQz79-73" value="93" style="text;html=1;strokeColor=none;fillColor=none;align=center;verticalAlign=middle;whiteSpace=wrap;rounded=0;" parent="1" vertex="1">
          <mxGeometry x="1045.05" y="110" width="30" height="20" as="geometry" />
        </mxCell>
        <mxCell id="b5c7_TrdBqpNDd2UQz79-74" value="93" style="text;html=1;strokeColor=none;fillColor=none;align=center;verticalAlign=middle;whiteSpace=wrap;rounded=0;" parent="1" vertex="1">
          <mxGeometry x="1045.05" y="20" width="30" height="20" as="geometry" />
        </mxCell>
        <mxCell id="b5c7_TrdBqpNDd2UQz79-75" value="103" style="text;html=1;strokeColor=none;fillColor=none;align=center;verticalAlign=middle;whiteSpace=wrap;rounded=0;" parent="1" vertex="1">
          <mxGeometry x="847.4" y="-10" width="30" height="20" as="geometry" />
        </mxCell>
        <mxCell id="b5c7_TrdBqpNDd2UQz79-76" value="93" style="text;html=1;strokeColor=none;fillColor=none;align=center;verticalAlign=middle;whiteSpace=wrap;rounded=0;" parent="1" vertex="1">
          <mxGeometry x="825.0999999999999" y="10" width="30" height="20" as="geometry" />
        </mxCell>
        <mxCell id="b5c7_TrdBqpNDd2UQz79-77" value="93" style="text;html=1;strokeColor=none;fillColor=none;align=center;verticalAlign=middle;whiteSpace=wrap;rounded=0;" parent="1" vertex="1">
          <mxGeometry x="595.05" y="110" width="30" height="20" as="geometry" />
        </mxCell>
        <mxCell id="b5c7_TrdBqpNDd2UQz79-78" value="93" style="text;html=1;strokeColor=none;fillColor=none;align=center;verticalAlign=middle;whiteSpace=wrap;rounded=0;" parent="1" vertex="1">
          <mxGeometry x="595.05" y="10" width="30" height="20" as="geometry" />
        </mxCell>
        <mxCell id="b5c7_TrdBqpNDd2UQz79-79" value="100" style="text;html=1;strokeColor=none;fillColor=none;align=center;verticalAlign=middle;whiteSpace=wrap;rounded=0;" parent="1" vertex="1">
          <mxGeometry x="620.05" y="-10" width="30" height="20" as="geometry" />
        </mxCell>
        <mxCell id="b5c7_TrdBqpNDd2UQz79-80" value="101" style="text;html=1;strokeColor=none;fillColor=none;align=center;verticalAlign=middle;whiteSpace=wrap;rounded=0;" parent="1" vertex="1">
          <mxGeometry x="619.99" y="90" width="30" height="20" as="geometry" />
        </mxCell>
        <mxCell id="b5c7_TrdBqpNDd2UQz79-81" value="99" style="text;html=1;strokeColor=none;fillColor=none;align=center;verticalAlign=middle;whiteSpace=wrap;rounded=0;" parent="1" vertex="1">
          <mxGeometry x="300.05" y="-10" width="30" height="20" as="geometry" />
        </mxCell>
        <mxCell id="b5c7_TrdBqpNDd2UQz79-82" value="93" style="text;html=1;strokeColor=none;fillColor=none;align=center;verticalAlign=middle;whiteSpace=wrap;rounded=0;" parent="1" vertex="1">
          <mxGeometry x="275.05" y="10" width="30" height="20" as="geometry" />
        </mxCell>
        <mxCell id="b5c7_TrdBqpNDd2UQz79-83" value="101" style="text;html=1;strokeColor=none;fillColor=none;align=center;verticalAlign=middle;whiteSpace=wrap;rounded=0;" parent="1" vertex="1">
          <mxGeometry x="735.0500000000001" y="-80" width="30" height="20" as="geometry" />
        </mxCell>
        <mxCell id="b5c7_TrdBqpNDd2UQz79-84" value="101" style="text;html=1;strokeColor=none;fillColor=none;align=center;verticalAlign=middle;whiteSpace=wrap;rounded=0;" parent="1" vertex="1">
          <mxGeometry x="505.05000000000007" y="-80" width="30" height="20" as="geometry" />
        </mxCell>
        <mxCell id="b5c7_TrdBqpNDd2UQz79-86" value="104" style="text;html=1;strokeColor=none;fillColor=none;align=center;verticalAlign=middle;whiteSpace=wrap;rounded=0;" parent="1" vertex="1">
          <mxGeometry x="530.0500000000001" y="-100" width="30" height="20" as="geometry" />
        </mxCell>
      </root>
    </mxGraphModel>
  </diagram>
</mxfile>
